<?xml version="1.0" encoding="utf-8"?>
<!-- Generator: Adobe Illustrator 27.5.0, SVG Export Plug-In . SVG Version: 6.00 Build 0)  -->
<svg version="1.1" xmlns="http://www.w3.org/2000/svg" xmlns:xlink="http://www.w3.org/1999/xlink" x="0px" y="0px"
	 viewBox="0 0 500 500" style="enable-background:new 0 0 500 500;" xml:space="preserve">
<g id="Background_Complete">
	<g>
		<rect y="382.398" style="fill:#EBEBEB;" width="500" height="0.25"/>
		<rect x="359" y="391.922" style="fill:#EBEBEB;" width="90.901" height="0.25"/>
		<rect x="306.333" y="389.208" style="fill:#EBEBEB;" width="24.887" height="0.25"/>
		<rect x="349.524" y="401.208" style="fill:#EBEBEB;" width="38.587" height="0.25"/>
		<rect x="52.459" y="399.528" style="fill:#EBEBEB;" width="22.638" height="0.25"/>
		<rect x="84" y="399.528" style="fill:#EBEBEB;" width="26.889" height="0.25"/>
		<rect x="178.309" y="395.306" style="fill:#EBEBEB;" width="46.838" height="0.25"/>
		<path style="fill:#EBEBEB;" d="M237.014,337.8H43.915c-3.147,0-5.708-2.561-5.708-5.708V60.66c0-3.147,2.561-5.708,5.708-5.708
			h193.099c3.146,0,5.707,2.561,5.707,5.708v271.432C242.721,335.239,240.16,337.8,237.014,337.8z M43.915,55.203
			c-3.01,0-5.458,2.448-5.458,5.458v271.432c0,3.01,2.448,5.458,5.458,5.458h193.099c3.009,0,5.457-2.448,5.457-5.458V60.66
			c0-3.009-2.448-5.458-5.457-5.458H43.915z"/>
		<path style="fill:#EBEBEB;" d="M453.31,337.8H260.212c-3.147,0-5.707-2.561-5.707-5.708V60.66c0-3.147,2.561-5.708,5.707-5.708
			H453.31c3.148,0,5.708,2.561,5.708,5.708v271.432C459.019,335.239,456.458,337.8,453.31,337.8z M260.212,55.203
			c-3.009,0-5.457,2.448-5.457,5.458v271.432c0,3.01,2.448,5.458,5.457,5.458H453.31c3.01,0,5.458-2.448,5.458-5.458V60.66
			c0-3.009-2.448-5.458-5.458-5.458H260.212z"/>
	</g>
	<g>
		<path style="fill:#F5F5F5;" d="M429.167,262.107c-1.517,0-2.982,0.212-4.387,0.572c-3.213-4.346-8.359-7.177-14.178-7.177
			c-4.258,0-8.163,1.509-11.211,4.02c-4.912-8.271-13.931-13.819-24.25-13.819c-14.683,0-26.738,11.227-28.063,25.563
			c-1.377-0.3-2.802-0.468-4.269-0.468c-11.036,0-19.983,8.947-19.983,19.983c0,11.036,8.947,19.982,19.983,19.982
			c3.39,0,6.58-0.851,9.378-2.341c2.78,10.08,11.99,17.492,22.954,17.492c9.151,0,17.086-5.163,21.08-12.729
			c4.636,3.926,10.623,6.303,17.173,6.303c14.426,0,26.142-11.489,26.566-25.812c4.158-3.227,6.846-8.26,6.846-13.93
			C446.807,270.004,438.91,262.107,429.167,262.107z"/>
		<path style="fill:#F5F5F5;" d="M72.671,156.32c-4.675-2.04-10.12,0.096-12.16,4.772c-4.675-2.04-10.12,0.096-12.16,4.772
			c-2.04,4.675,0.096,10.12,4.772,12.16l16.931,7.388l7.388-16.932C79.483,163.804,77.346,158.36,72.671,156.32z"/>
		<path style="fill:#E6E6E6;" d="M151.613,75.657c-1.59-3.018-5.326-4.174-8.343-2.584c-1.59-3.018-5.326-4.174-8.343-2.584
			c-3.017,1.59-4.174,5.326-2.584,8.343l5.76,10.927L149.03,84C152.047,82.41,153.204,78.674,151.613,75.657z"/>
		<path style="fill:#F5F5F5;" d="M402.969,50.842c-1.59-3.017-5.326-4.174-8.343-2.584c-1.591-3.018-5.326-4.174-8.344-2.584
			c-3.017,1.591-4.174,5.326-2.584,8.343l5.76,10.927l10.927-5.76C403.402,57.595,404.559,53.859,402.969,50.842z"/>
		<path style="fill:#EBEBEB;" d="M442.986,231.572c-0.388-2.491-2.721-4.195-5.212-3.808c-0.388-2.491-2.721-4.195-5.212-3.808
			c-2.491,0.388-4.195,2.721-3.808,5.212l1.404,9.02l9.02-1.404C441.669,236.396,443.374,234.063,442.986,231.572z"/>
		<path style="fill:#F5F5F5;" d="M350.531,154.258c-1.971-0.615-4.067,0.484-4.682,2.455c-1.971-0.615-4.067,0.484-4.682,2.455
			c-0.615,1.971,0.484,4.067,2.455,4.683l7.137,2.228l2.228-7.137C353.601,156.97,352.502,154.873,350.531,154.258z"/>
		<path style="fill:#F5F5F5;" d="M73.387,62.971c-1.971-0.615-4.067,0.484-4.683,2.455c-1.971-0.615-4.067,0.484-4.683,2.455
			c-0.615,1.971,0.484,4.067,2.455,4.682l7.137,2.228l2.228-7.137C76.457,65.682,75.358,63.586,73.387,62.971z"/>
		<path style="fill:#EBEBEB;" d="M184.914,229.923c0-12.465-9.509-22.702-21.667-23.868c-6.453-14.469-20.954-24.561-37.82-24.561
			c-13.824,0-26.057,6.782-33.576,17.192c-3.476-2.5-7.729-3.99-12.338-3.99c-11.693,0-21.172,9.479-21.172,21.173
			c0,1.842,0.26,3.618,0.702,5.322c-7.003,5.858-11.464,14.655-11.464,24.499c0,17.637,14.298,31.935,31.935,31.935
			c9.353,0,17.741-4.046,23.581-10.454c6.187,8.024,15.889,13.198,26.804,13.198c16.189,0,29.715-11.373,33.043-26.563
			C175.243,252.782,184.914,242.49,184.914,229.923z"/>
		<path style="fill:#F0F0F0;" d="M346.802,117.423c0-8.446,6.443-15.383,14.682-16.174c4.373-9.805,14.199-16.643,25.628-16.643
			c9.367,0,17.657,4.595,22.752,11.65c2.356-1.694,5.237-2.703,8.361-2.703c7.924,0,14.347,6.423,14.347,14.347
			c0,1.248-0.176,2.452-0.475,3.606c4.746,3.969,7.768,9.93,7.768,16.601c0,11.951-9.689,21.64-21.64,21.64
			c-6.338,0-12.022-2.742-15.979-7.084c-4.193,5.437-10.767,8.943-18.163,8.943c-10.97,0-20.136-7.706-22.391-18
			C353.355,132.913,346.802,125.939,346.802,117.423z"/>
	</g>
</g>
<g id="Background_Simple" style="display:none;">
	<g style="display:inline;">
		<path style="fill:#407BFF;" d="M308.374,179.754c43.005,11.623,80.997,8.34,107.722,51.609
			c25.274,40.919,12.957,75.764-20.956,104.822c-88.591,75.907-156.56-27.356-254.169-47.129
			C55.91,271.824,46.421,131.617,126.497,85.904c25.811-14.735,74.673-27.372,100.422-5.252
			C263.003,111.651,249.265,163.778,308.374,179.754z"/>
		<path style="opacity:0.9;fill:#FFFFFF;" d="M308.374,179.754c43.005,11.623,80.997,8.34,107.722,51.609
			c25.274,40.919,12.957,75.764-20.956,104.822c-88.591,75.907-156.56-27.356-254.169-47.129
			C55.91,271.824,46.421,131.617,126.497,85.904c25.811-14.735,74.673-27.372,100.422-5.252
			C263.003,111.651,249.265,163.778,308.374,179.754z"/>
	</g>
</g>
<g id="Shadow_1_">
	<ellipse id="_x3C_Path_x3E__374_" style="fill:#F5F5F5;" cx="250" cy="416.238" rx="193.889" ry="11.323"/>
</g>
<g id="_x34_04">
	<g>
		<g>
			<path style="fill:#263238;" d="M136.109,390.751H81.784c-2.667,0-4.829-2.162-4.829-4.829v-22.296
				c0-1.138,0.402-2.239,1.134-3.109l61.403-72.987c0.918-1.091,2.27-1.72,3.696-1.72h23.534c2.667,0,4.829,2.162,4.829,4.829
				v68.034c0,2.667,2.162,4.829,4.829,4.829h6.208c2.667,0,4.829,2.162,4.829,4.829v17.59c0,2.667-2.162,4.829-4.829,4.829h-6.208
				c-2.667,0-4.829,2.162-4.829,4.829v13.971c0,2.667-2.162,4.829-4.829,4.829h-20.953c-2.667,0-4.829-2.162-4.829-4.829v-13.971
				C140.939,392.914,138.777,390.751,136.109,390.751z M140.939,360.121v-27.201c0-3.146-3.92-4.587-5.957-2.189l-23.117,27.201
				c-1.866,2.196-0.305,5.57,2.576,5.57h23.117C139.425,363.503,140.939,361.989,140.939,360.121z"/>
			<path style="fill:#263238;" d="M198.369,350.658c0-24.029,4.326-40.846,12.978-50.448c8.651-9.601,21.83-14.4,39.537-14.4
				c8.507,0,15.492,1.05,20.955,3.146c5.461,2.1,9.917,4.83,13.366,8.195c3.449,3.361,6.165,6.898,8.149,10.604
				c1.983,3.71,3.578,8.035,4.785,12.978c2.357,9.429,3.536,19.262,3.536,29.49c0,22.94-3.881,39.726-11.641,50.361
				c-7.761,10.636-21.127,15.951-40.098,15.951c-10.637,0-19.23-1.696-25.783-5.085c-6.554-3.392-11.93-8.367-16.126-14.921
				c-3.048-4.654-5.419-11.02-7.114-19.097C199.217,369.355,198.369,360.431,198.369,350.658z M233.207,350.744
				c0,16.096,1.423,27.088,4.268,32.98c2.846,5.896,6.97,8.842,12.375,8.842c3.564,0,6.654-1.25,9.269-3.753
				c2.616-2.499,4.541-6.452,5.778-11.858c1.235-5.402,1.854-13.824,1.854-25.263c0-16.786-1.423-28.068-4.269-33.846
				c-2.845-5.778-7.114-8.669-12.805-8.669c-5.807,0-10.003,2.95-12.59,8.841C234.501,323.91,233.207,334.82,233.207,350.744z"/>
			<path style="fill:#263238;" d="M371.695,390.751H317.37c-2.667,0-4.829-2.162-4.829-4.829v-22.296
				c0-1.138,0.401-2.239,1.134-3.109l61.403-72.987c0.918-1.091,2.27-1.72,3.696-1.72h23.534c2.667,0,4.83,2.162,4.83,4.829v68.034
				c0,2.667,2.162,4.829,4.829,4.829h6.208c2.667,0,4.829,2.162,4.829,4.829v17.59c0,2.667-2.162,4.829-4.829,4.829h-6.208
				c-2.667,0-4.829,2.162-4.829,4.829v13.971c0,2.667-2.162,4.829-4.83,4.829h-20.953c-2.667,0-4.829-2.162-4.829-4.829v-13.971
				C376.524,392.914,374.362,390.751,371.695,390.751z M376.524,360.121v-27.201c0-3.146-3.92-4.587-5.957-2.189l-23.117,27.201
				c-1.866,2.196-0.305,5.57,2.576,5.57h23.116C375.011,363.503,376.524,361.989,376.524,360.121z"/>
		</g>
		<g>
			<path style="fill:#FFFFFF;" d="M157.818,298.876c-0.929,1.963-1.907,3.808-2.859,5.66l-2.798,5.551l-2.797,5.574
				c-0.947,1.867-1.911,3.741-3.066,5.582c0.153-2.168,0.612-4.267,1.232-6.316c0.622-2.048,1.402-4.053,2.368-5.972
				c0.958-1.922,2.096-3.759,3.4-5.473C154.6,301.772,156.076,300.178,157.818,298.876z"/>
			<path style="fill:#FFFFFF;" d="M161.378,303.58c-0.864,1.734-1.768,3.363-2.649,4.997l-2.589,4.902l-2.587,4.924
				c-0.876,1.649-1.766,3.305-2.827,4.928c0.17-1.932,0.612-3.797,1.198-5.614c0.574-1.823,1.322-3.59,2.209-5.288
				c0.892-1.695,1.921-3.326,3.126-4.824C158.453,306.102,159.799,304.707,161.378,303.58z"/>
			<path style="fill:#FFFFFF;" d="M151.662,296.912c-0.772,1.797-1.594,3.49-2.394,5.188l-2.35,5.085l-2.35,5.105
				c-0.796,1.709-1.607,3.426-2.59,5.119c0.077-1.956,0.429-3.858,0.928-5.721c0.486-1.868,1.149-3.688,1.953-5.446
				c0.809-1.756,1.758-3.455,2.889-5.032C148.865,299.628,150.14,298.145,151.662,296.912z"/>
		</g>
		<g>
			<path style="fill:#FFFFFF;" d="M381.036,372.905c1.742,1.302,3.218,2.896,4.521,4.608c1.304,1.714,2.442,3.551,3.4,5.473
				c0.966,1.918,1.745,3.923,2.368,5.972c0.621,2.049,1.079,4.148,1.232,6.316c-1.155-1.841-2.118-3.715-3.066-5.582l-2.797-5.575
				l-2.799-5.551C382.943,376.714,381.965,374.869,381.036,372.905z"/>
			<path style="fill:#FFFFFF;" d="M377.476,377.608c1.579,1.127,2.925,2.522,4.118,4.026c1.206,1.498,2.235,3.129,3.126,4.824
				c0.887,1.698,1.635,3.465,2.21,5.288c0.586,1.817,1.028,3.682,1.198,5.614c-1.061-1.623-1.952-3.278-2.827-4.927l-2.587-4.925
				l-2.589-4.902C379.244,380.971,378.34,379.343,377.476,377.608z"/>
			<path style="fill:#FFFFFF;" d="M387.192,370.941c1.522,1.232,2.796,2.715,3.914,4.298c1.131,1.577,2.079,3.276,2.889,5.031
				c0.805,1.759,1.467,3.579,1.953,5.446c0.499,1.863,0.851,3.765,0.928,5.721c-0.983-1.693-1.794-3.409-2.59-5.119l-2.35-5.105
				l-2.35-5.086C388.786,374.431,387.964,372.738,387.192,370.941z"/>
		</g>
	</g>
</g>
<g id="Error">
	<g>
		<g>
			<g>
				<path style="fill:#407BFF;" d="M299.118,401.617h13.285v3.425h-8.317v2.55h7.715v3.272h-7.715v3.163h8.557v3.633h-13.525
					V401.617z"/>
				<path style="fill:#407BFF;" d="M312.644,419.588h-13.525c-1.065,0-1.928-0.863-1.928-1.929v-16.042
					c0-1.065,0.863-1.929,1.928-1.929h13.285c1.065,0,1.928,0.863,1.928,1.929v3.425c0,0.666-0.338,1.254-0.852,1.6
					c0.159,0.28,0.25,0.604,0.25,0.95v3.272c0,0.51-0.198,0.974-0.521,1.318c0.79,0.241,1.364,0.977,1.364,1.845v3.633
					C314.572,418.725,313.708,419.588,312.644,419.588z M301.046,415.73h2.137c-0.61-0.323-1.026-0.965-1.026-1.704v-3.163
					c0-0.69,0.362-1.295,0.907-1.636c-0.545-0.341-0.907-0.946-0.907-1.636v-2.55c0-0.603,0.277-1.143,0.712-1.496h-1.824V415.73z"
					/>
			</g>
			<g>
				<path style="fill:#407BFF;" d="M315.379,417.659v-16.042h8.262c1.532,0,2.703,0.131,3.513,0.394
					c0.81,0.263,1.463,0.75,1.959,1.461c0.496,0.711,0.744,1.577,0.744,2.599c0,0.891-0.19,1.658-0.569,2.304
					c-0.38,0.646-0.902,1.169-1.566,1.57c-0.423,0.256-1.004,0.467-1.741,0.635c0.59,0.197,1.021,0.395,1.29,0.592
					c0.182,0.131,0.446,0.412,0.793,0.843c0.346,0.432,0.578,0.764,0.694,0.997l2.401,4.648h-5.601l-2.65-4.902
					c-0.336-0.635-0.635-1.047-0.897-1.236c-0.358-0.248-0.762-0.372-1.215-0.372h-0.438v6.511H315.379z M320.358,408.117h2.09
					c0.226,0,0.664-0.073,1.313-0.219c0.328-0.066,0.596-0.233,0.804-0.504c0.208-0.27,0.312-0.58,0.312-0.93
					c0-0.519-0.164-0.916-0.492-1.193c-0.328-0.277-0.945-0.416-1.849-0.416h-2.177V408.117z"/>
				<path style="fill:#407BFF;" d="M331.159,419.588h-5.601c-0.708,0-1.36-0.389-1.696-1.012l-1.575-2.913v1.996
					c0,1.065-0.863,1.929-1.928,1.929h-4.979c-1.065,0-1.928-0.863-1.928-1.929v-16.042c0-1.065,0.863-1.929,1.928-1.929h8.262
					c1.752,0,3.096,0.16,4.108,0.488c1.214,0.394,2.205,1.131,2.945,2.191c0.724,1.037,1.091,2.283,1.091,3.702
					c0,1.234-0.281,2.339-0.835,3.281c-0.348,0.592-0.782,1.114-1.296,1.563c0.396,0.503,0.661,0.896,0.83,1.235l2.389,4.625
					c0.309,0.598,0.283,1.313-0.066,1.888C332.456,419.236,331.832,419.588,331.159,419.588z M326.707,415.73h1.286l-0.948-1.835
					c-0.015-0.029-0.106-0.203-0.485-0.676c-0.307-0.381-0.436-0.499-0.45-0.511c0,0,0,0,0,0c-0.004,0-0.192-0.118-0.74-0.301
					c-0.251-0.084-0.476-0.217-0.666-0.384L326.707,415.73z M317.307,415.73h1.123v-4.582c0-0.615,0.288-1.162,0.736-1.516
					c-0.448-0.354-0.736-0.9-0.736-1.516v-3.262c0-0.506,0.195-0.966,0.513-1.31h-1.636V415.73z M323.169,409.979
					c0.334,0.252,0.632,0.575,0.927,1.007c-0.035-0.162-0.049-0.331-0.041-0.502c0.013-0.253,0.074-0.495,0.176-0.715
					c-0.029,0.007-0.058,0.013-0.087,0.019C323.76,409.875,323.44,409.938,323.169,409.979z M325.405,403.626
					c0.078,0.055,0.153,0.112,0.225,0.173c0.536,0.453,1.176,1.283,1.176,2.666c0,0.765-0.241,1.484-0.696,2.085
					c0.334-0.104,0.521-0.199,0.615-0.256c0.389-0.235,0.684-0.529,0.901-0.897c0.204-0.347,0.303-0.78,0.303-1.326
					c0-0.623-0.13-1.112-0.397-1.495c-0.255-0.366-0.564-0.598-0.972-0.73C326.326,403.77,325.962,403.685,325.405,403.626z
					 M323.34,406.017c-0.003,0.001-0.007,0.002-0.01,0.003C323.333,406.019,323.336,406.018,323.34,406.017z"/>
			</g>
			<g>
				<path style="fill:#407BFF;" d="M332.811,417.659v-16.042h8.262c1.532,0,2.703,0.131,3.513,0.394
					c0.81,0.263,1.463,0.75,1.959,1.461c0.496,0.711,0.744,1.577,0.744,2.599c0,0.891-0.19,1.658-0.569,2.304
					c-0.38,0.646-0.902,1.169-1.566,1.57c-0.423,0.256-1.004,0.467-1.741,0.635c0.59,0.197,1.021,0.395,1.291,0.592
					c0.182,0.131,0.446,0.412,0.793,0.843c0.346,0.432,0.578,0.764,0.694,0.997l2.401,4.648h-5.601l-2.65-4.902
					c-0.336-0.635-0.635-1.047-0.897-1.236c-0.358-0.248-0.763-0.372-1.215-0.372h-0.438v6.511H332.811z M337.79,408.117h2.09
					c0.226,0,0.664-0.073,1.313-0.219c0.328-0.066,0.596-0.233,0.804-0.504c0.208-0.27,0.312-0.58,0.312-0.93
					c0-0.519-0.164-0.916-0.492-1.193c-0.328-0.277-0.945-0.416-1.849-0.416h-2.177V408.117z"/>
				<path style="fill:#407BFF;" d="M348.591,419.588h-5.601c-0.708,0-1.36-0.389-1.696-1.012l-1.575-2.913v1.996
					c0,1.065-0.863,1.929-1.928,1.929h-4.979c-1.065,0-1.928-0.863-1.928-1.929v-16.042c0-1.065,0.863-1.929,1.928-1.929h8.262
					c1.753,0,3.096,0.16,4.108,0.488c1.214,0.394,2.205,1.131,2.945,2.191c0.724,1.037,1.091,2.283,1.091,3.702
					c0,1.234-0.281,2.339-0.835,3.281c-0.348,0.592-0.782,1.114-1.296,1.563c0.397,0.503,0.661,0.896,0.83,1.235l2.389,4.625
					c0.309,0.598,0.283,1.313-0.066,1.888C349.888,419.236,349.264,419.588,348.591,419.588z M344.139,415.73h1.286l-0.948-1.835
					c-0.015-0.029-0.107-0.203-0.485-0.676c-0.307-0.381-0.436-0.499-0.45-0.511c0,0,0,0,0,0c-0.004,0-0.192-0.118-0.74-0.301
					c-0.251-0.084-0.476-0.217-0.666-0.384L344.139,415.73z M334.74,415.73h1.123v-4.582c0-0.615,0.288-1.162,0.736-1.516
					c-0.448-0.354-0.736-0.9-0.736-1.516v-3.262c0-0.506,0.195-0.966,0.513-1.31h-1.636V415.73z M340.601,409.979
					c0.334,0.252,0.632,0.575,0.927,1.007c-0.035-0.162-0.049-0.331-0.041-0.502c0.013-0.253,0.074-0.495,0.176-0.715
					c-0.029,0.007-0.058,0.013-0.087,0.019C341.192,409.875,340.873,409.938,340.601,409.979z M342.837,403.626
					c0.078,0.055,0.153,0.112,0.225,0.173c0.536,0.453,1.176,1.283,1.176,2.666c0,0.765-0.241,1.484-0.696,2.085
					c0.334-0.104,0.521-0.199,0.615-0.256c0.389-0.235,0.684-0.529,0.901-0.897c0.204-0.347,0.303-0.78,0.303-1.326
					c0-0.623-0.13-1.112-0.397-1.495c-0.255-0.366-0.564-0.598-0.972-0.73C343.758,403.77,343.395,403.685,342.837,403.626z
					 M340.772,406.017c-0.003,0.001-0.007,0.002-0.01,0.003C340.765,406.019,340.769,406.018,340.772,406.017z"/>
			</g>
			<g>
				<path style="fill:#407BFF;" d="M349.171,409.648c0-2.618,0.729-4.657,2.189-6.116c1.459-1.459,3.491-2.189,6.096-2.189
					c2.67,0,4.727,0.717,6.171,2.15c1.445,1.434,2.167,3.441,2.167,6.024c0,1.875-0.316,3.412-0.947,4.612
					c-0.631,1.2-1.543,2.134-2.735,2.802c-1.193,0.667-2.68,1.001-4.459,1.001c-1.81,0-3.307-0.288-4.492-0.864
					c-1.186-0.576-2.147-1.488-2.883-2.736C349.539,413.085,349.171,411.524,349.171,409.648z M354.128,409.671
					c0,1.619,0.301,2.783,0.903,3.49c0.602,0.708,1.421,1.062,2.457,1.062c1.065,0,1.889-0.346,2.473-1.039
					c0.583-0.693,0.875-1.936,0.875-3.732c0-1.511-0.305-2.613-0.914-3.31c-0.609-0.696-1.435-1.045-2.479-1.045
					c-0.999,0-1.802,0.353-2.408,1.061C354.431,406.866,354.128,408.037,354.128,409.671z"/>
				<path style="fill:#407BFF;" d="M357.652,419.861c-2.095,0-3.89-0.356-5.335-1.059c-1.527-0.742-2.772-1.917-3.701-3.49
					c-0.911-1.542-1.373-3.447-1.373-5.664c0-3.137,0.926-5.653,2.754-7.479c1.827-1.828,4.337-2.755,7.459-2.755
					c3.184,0,5.718,0.912,7.53,2.711c1.816,1.802,2.737,4.289,2.737,7.393c0,2.181-0.393,4.035-1.168,5.51
					c-0.804,1.529-1.981,2.736-3.5,3.587C361.574,419.441,359.756,419.861,357.652,419.861z M358.993,403.373
					c0.932,0.26,1.739,0.766,2.381,1.499c0.936,1.071,1.391,2.569,1.391,4.58c0,2.284-0.434,3.911-1.328,4.973
					c-0.442,0.525-1.132,1.116-2.154,1.453c0.725-0.122,1.356-0.332,1.888-0.629c0.867-0.486,1.512-1.146,1.969-2.017
					c0.482-0.915,0.726-2.165,0.726-3.715c0-2.066-0.522-3.59-1.597-4.655C361.464,404.065,360.385,403.571,358.993,403.373z
					 M355.897,403.385c-1.326,0.21-2.372,0.709-3.173,1.511c-1.093,1.093-1.624,2.647-1.624,4.753c0,1.517,0.282,2.763,0.837,3.702
					c0.545,0.925,1.221,1.572,2.066,1.983c0.459,0.223,0.996,0.391,1.607,0.503c-0.795-0.287-1.487-0.767-2.048-1.428
					c-0.916-1.075-1.362-2.626-1.362-4.738c0-2.128,0.448-3.686,1.37-4.766C354.204,404.165,354.992,403.652,355.897,403.385z
					 M357.444,407.025c-0.538,0-0.77,0.186-0.943,0.387c-0.104,0.121-0.444,0.645-0.444,2.259c0,1.596,0.339,2.118,0.443,2.24
					c0.17,0.2,0.406,0.383,0.988,0.383c0.701,0,0.902-0.238,0.999-0.353c0.043-0.051,0.422-0.558,0.422-2.489
					c0-1.391-0.306-1.891-0.438-2.042C358.304,407.22,358.051,407.025,357.444,407.025z"/>
			</g>
			<g>
				<path style="fill:#407BFF;" d="M368.529,417.659v-16.042h8.262c1.532,0,2.703,0.131,3.513,0.394
					c0.81,0.263,1.462,0.75,1.958,1.461c0.496,0.711,0.744,1.577,0.744,2.599c0,0.891-0.189,1.658-0.569,2.304
					c-0.379,0.646-0.901,1.169-1.565,1.57c-0.423,0.256-1.004,0.467-1.741,0.635c0.59,0.197,1.021,0.395,1.29,0.592
					c0.182,0.131,0.446,0.412,0.793,0.843c0.346,0.432,0.578,0.764,0.694,0.997l2.4,4.648h-5.601l-2.65-4.902
					c-0.335-0.635-0.635-1.047-0.897-1.236c-0.357-0.248-0.762-0.372-1.214-0.372h-0.438v6.511H368.529z M373.508,408.117h2.09
					c0.226,0,0.664-0.073,1.313-0.219c0.328-0.066,0.597-0.233,0.804-0.504c0.208-0.27,0.312-0.58,0.312-0.93
					c0-0.519-0.164-0.916-0.492-1.193c-0.329-0.277-0.945-0.416-1.85-0.416h-2.178V408.117z"/>
				<path style="fill:#407BFF;" d="M384.309,419.588h-5.601c-0.708,0-1.359-0.389-1.696-1.012l-1.575-2.914v1.997
					c0,1.065-0.863,1.929-1.928,1.929h-4.979c-1.065,0-1.928-0.863-1.928-1.929v-16.042c0-1.065,0.863-1.929,1.928-1.929h8.262
					c1.752,0,3.096,0.16,4.107,0.488c1.214,0.394,2.205,1.131,2.945,2.191c0.724,1.037,1.091,2.283,1.091,3.702
					c0,1.235-0.281,2.34-0.836,3.281c-0.347,0.592-0.781,1.114-1.295,1.563c0.396,0.502,0.66,0.896,0.83,1.234l2.389,4.626
					c0.309,0.598,0.283,1.313-0.066,1.888C385.606,419.236,384.982,419.588,384.309,419.588z M379.857,415.73h1.286l-0.948-1.835
					c-0.015-0.028-0.106-0.203-0.485-0.676c-0.306-0.38-0.436-0.498-0.45-0.511c0.001,0,0.001,0,0.001,0
					c-0.004,0-0.193-0.118-0.741-0.301c-0.251-0.084-0.476-0.217-0.665-0.384L379.857,415.73z M370.457,415.73h1.123v-4.582
					c0-0.615,0.288-1.162,0.736-1.516c-0.448-0.354-0.736-0.9-0.736-1.516v-3.262c0-0.506,0.195-0.966,0.513-1.31h-1.636V415.73z
					 M376.319,409.979c0.334,0.252,0.632,0.575,0.927,1.006c-0.035-0.162-0.049-0.33-0.04-0.501
					c0.012-0.253,0.074-0.495,0.175-0.715c-0.028,0.007-0.057,0.013-0.086,0.019C376.91,409.875,376.59,409.938,376.319,409.979z
					 M378.555,403.626c0.078,0.054,0.152,0.111,0.224,0.172c0.538,0.454,1.177,1.285,1.177,2.667c0,0.765-0.241,1.485-0.697,2.086
					c0.334-0.105,0.521-0.2,0.615-0.257c0.39-0.235,0.684-0.528,0.9-0.897c0.205-0.347,0.304-0.78,0.304-1.326
					c0-0.623-0.13-1.112-0.397-1.495c-0.255-0.366-0.564-0.598-0.972-0.73C379.476,403.77,379.113,403.685,378.555,403.626z
					 M376.466,406.857L376.466,406.857L376.466,406.857z M376.49,406.017c-0.003,0.001-0.007,0.002-0.011,0.003
					C376.483,406.019,376.486,406.018,376.49,406.017z"/>
			</g>
		</g>
		<g>
			<path style="fill:#FFFFFF;" d="M299.118,401.617h13.285v3.425h-8.317v2.55h7.715v3.272h-7.715v3.163h8.557v3.633h-13.525V401.617
				z"/>
			<path style="fill:#FFFFFF;" d="M315.379,417.659v-16.042h8.262c1.532,0,2.703,0.131,3.513,0.394
				c0.81,0.263,1.463,0.75,1.959,1.461c0.496,0.711,0.744,1.577,0.744,2.599c0,0.891-0.19,1.658-0.569,2.304
				c-0.38,0.646-0.902,1.169-1.566,1.57c-0.423,0.256-1.004,0.467-1.741,0.635c0.59,0.197,1.021,0.395,1.29,0.592
				c0.182,0.131,0.446,0.412,0.793,0.843c0.346,0.432,0.578,0.764,0.694,0.997l2.401,4.648h-5.601l-2.65-4.902
				c-0.336-0.635-0.635-1.047-0.897-1.236c-0.358-0.248-0.762-0.372-1.215-0.372h-0.438v6.511H315.379z M320.358,408.117h2.09
				c0.226,0,0.664-0.073,1.313-0.219c0.328-0.066,0.596-0.233,0.804-0.504c0.208-0.27,0.312-0.58,0.312-0.93
				c0-0.519-0.164-0.916-0.492-1.193c-0.328-0.277-0.945-0.416-1.849-0.416h-2.177V408.117z"/>
			<path style="fill:#FFFFFF;" d="M332.811,417.659v-16.042h8.262c1.532,0,2.703,0.131,3.513,0.394
				c0.81,0.263,1.463,0.75,1.959,1.461c0.496,0.711,0.744,1.577,0.744,2.599c0,0.891-0.19,1.658-0.569,2.304
				c-0.38,0.646-0.902,1.169-1.566,1.57c-0.423,0.256-1.004,0.467-1.741,0.635c0.59,0.197,1.021,0.395,1.291,0.592
				c0.182,0.131,0.446,0.412,0.793,0.843c0.346,0.432,0.578,0.764,0.694,0.997l2.401,4.648h-5.601l-2.65-4.902
				c-0.336-0.635-0.635-1.047-0.897-1.236c-0.358-0.248-0.763-0.372-1.215-0.372h-0.438v6.511H332.811z M337.79,408.117h2.09
				c0.226,0,0.664-0.073,1.313-0.219c0.328-0.066,0.596-0.233,0.804-0.504c0.208-0.27,0.312-0.58,0.312-0.93
				c0-0.519-0.164-0.916-0.492-1.193c-0.328-0.277-0.945-0.416-1.849-0.416h-2.177V408.117z"/>
			<path style="fill:#FFFFFF;" d="M349.171,409.648c0-2.618,0.729-4.657,2.189-6.116c1.459-1.459,3.491-2.189,6.096-2.189
				c2.67,0,4.727,0.717,6.171,2.15c1.445,1.434,2.167,3.441,2.167,6.024c0,1.875-0.316,3.412-0.947,4.612
				c-0.631,1.2-1.543,2.134-2.735,2.802c-1.193,0.667-2.68,1.001-4.459,1.001c-1.81,0-3.307-0.288-4.492-0.864
				c-1.186-0.576-2.147-1.488-2.883-2.736C349.539,413.085,349.171,411.524,349.171,409.648z M354.128,409.671
				c0,1.619,0.301,2.783,0.903,3.49c0.602,0.708,1.421,1.062,2.457,1.062c1.065,0,1.889-0.346,2.473-1.039
				c0.583-0.693,0.875-1.936,0.875-3.732c0-1.511-0.305-2.613-0.914-3.31c-0.609-0.696-1.435-1.045-2.479-1.045
				c-0.999,0-1.802,0.353-2.408,1.061C354.431,406.866,354.128,408.037,354.128,409.671z"/>
			<path style="fill:#FFFFFF;" d="M368.529,417.659v-16.042h8.262c1.532,0,2.703,0.131,3.513,0.394
				c0.81,0.263,1.462,0.75,1.958,1.461c0.496,0.711,0.744,1.577,0.744,2.599c0,0.891-0.189,1.658-0.569,2.304
				c-0.379,0.646-0.901,1.169-1.565,1.57c-0.423,0.256-1.004,0.467-1.741,0.635c0.59,0.197,1.021,0.395,1.29,0.592
				c0.182,0.131,0.446,0.412,0.793,0.843c0.346,0.432,0.578,0.764,0.694,0.997l2.4,4.648h-5.601l-2.65-4.902
				c-0.335-0.635-0.635-1.047-0.897-1.236c-0.357-0.248-0.762-0.372-1.214-0.372h-0.438v6.511H368.529z M373.508,408.117h2.09
				c0.226,0,0.664-0.073,1.313-0.219c0.328-0.066,0.597-0.233,0.804-0.504c0.208-0.27,0.312-0.58,0.312-0.93
				c0-0.519-0.164-0.916-0.492-1.193c-0.329-0.277-0.945-0.416-1.85-0.416h-2.178V408.117z"/>
		</g>
	</g>
</g>
<g id="Character_1_">
	<g>
		<path style="fill:#263238;" d="M426.505,156.28c-4.223-1.326-8.652-1.996-13.046-1.915c-4.375,0.065-8.766,0.885-12.484,2.411
			c-1.84,0.751-3.519,1.699-4.68,2.643c-0.131,0.118-0.29,0.23-0.406,0.344c-0.128,0.127-0.219,0.185-0.401,0.378
			c-0.332,0.323-0.65,0.67-0.97,1.018c-0.628,0.711-1.219,1.479-1.769,2.287c-2.213,3.228-3.693,7.167-4.145,11.019
			c-0.239,1.928-0.201,3.83,0.077,5.615c0.141,0.893,0.337,1.76,0.61,2.584c0.275,0.831,0.579,1.58,1.021,2.456
			c0.872,1.73,2.171,3.672,3.7,5.835c1.528,2.177,3.295,4.561,5.01,7.461c1.699,2.871,3.371,6.386,4.167,10.466
			c0.392,2.005,0.553,4.207,0.435,6.318c-0.112,2.117-0.495,4.171-1.087,6.117c-1.188,3.897-3.153,7.386-5.698,10.37
			c-1.266,1.481-2.733,2.87-4.248,4.056c-1.505,1.174-3.113,2.214-4.783,3.083c-3.343,1.744-6.888,2.857-10.363,3.439
			c-3.483,0.588-6.91,0.698-10.225,0.472c-3.314-0.224-6.547-0.771-9.65-1.572c-3.064-0.781-5.973-1.767-8.755-2.83
			c-5.553-2.138-10.594-4.576-15.405-6.646c-4.801-2.077-9.431-3.795-13.901-4.676c-2.244-0.457-4.39-0.659-6.587-0.663
			c-2.199,0.001-4.44,0.222-6.69,0.645c-4.502,0.861-9.023,2.513-13.367,4.714c-8.732,4.412-16.82,11.132-25.177,18.176
			l-0.009,0.008c-3.167,2.669-7.899,2.267-10.569-0.901c-2.642-3.134-2.27-7.804,0.806-10.488
			c8.25-7.191,16.944-14.907,27.719-20.668c5.375-2.854,11.19-5.163,17.44-6.491c3.124-0.654,6.353-1.051,9.635-1.119
			c3.283-0.069,6.626,0.198,9.766,0.772c6.324,1.126,12.053,3.213,17.349,5.371c5.298,2.169,10.188,4.402,14.909,6.104
			c2.355,0.848,4.664,1.57,6.925,2.097c2.215,0.527,4.419,0.842,6.577,0.945c4.318,0.215,8.33-0.534,11.31-2.198
			c0.753-0.412,1.442-0.888,2.086-1.414c0.628-0.523,1.148-1.039,1.652-1.651c0.987-1.208,1.709-2.626,2.085-3.983
			c0.192-0.679,0.292-1.344,0.302-1.966c0.009-0.626-0.039-1.176-0.183-1.858c-0.29-1.307-0.957-2.843-2.085-4.655
			c-1.106-1.803-2.626-3.818-4.299-6.088c-1.671-2.283-3.531-4.842-5.21-7.97c-0.832-1.551-1.622-3.324-2.235-5.085
			c-0.622-1.768-1.077-3.572-1.404-5.379c-0.648-3.617-0.76-7.248-0.409-10.769c0.705-7.049,3.069-13.715,6.9-19.629
			c0.961-1.478,2.015-2.909,3.174-4.277c0.587-0.68,1.185-1.352,1.82-2.001c0.284-0.31,0.71-0.703,1.074-1.052
			c0.379-0.362,0.759-0.674,1.143-1.008c3.07-2.553,6.24-4.288,9.438-5.677c6.4-2.723,12.972-3.961,19.544-4.188
			c6.569-0.221,13.133,0.669,19.397,2.531c5.282,1.57,8.291,7.125,6.721,12.407c-1.57,5.282-7.125,8.291-12.407,6.721
			C426.622,156.316,426.536,156.29,426.505,156.28z"/>
		<path style="fill:#407BFF;" d="M426.256,157.093c-5.352-1.782-11.114-2.579-16.712-2.034c-2.785,0.267-5.519,0.845-7.992,1.716
			c-2.446,0.865-4.622,2.125-5.919,3.228l-0.575,0.489c-4.059,3.45-10.146,2.955-13.596-1.104
			c-3.276-3.855-2.968-9.565,0.545-13.082c3.87-3.853,8.006-6.21,12.17-8.018c4.175-1.754,8.434-2.882,12.73-3.546
			c8.591-1.32,17.348-0.638,25.681,1.642c5.77,1.579,9.168,7.536,7.589,13.307c-1.579,5.77-7.536,9.168-13.307,7.589
			c-0.178-0.049-0.355-0.102-0.529-0.159L426.256,157.093z"/>
		<g>
			<path style="fill:#263238;" d="M239.802,280.846l3.712,5.785c-3.736,1.946-7.636,1.66-11.613,1.66
				C230.215,280.471,239.802,280.846,239.802,280.846z"/>
			<path style="fill:#407BFF;" d="M217.187,250.044c4.733,13.607,22.269,31.653,22.269,31.653s-7.394,1.487-5.385,6.595h10.333
				l22.238-4.189c1.548-0.383,2.526-1.848,2.281-3.417l-8.216-27.54L217.187,250.044z"/>
			<path style="fill:#263238;" d="M303.459,257.786l1.989,8.117c3.918-1.548,7.229-2.617,8.928-6.253
				C312.425,254.588,303.459,257.786,303.459,257.786z"/>
			<path style="fill:#407BFF;" d="M285.896,216.185c7.024,12.535,21.76,43.113,21.76,43.113s7.588,0.326,6.569,5.654l-29.383,7.257
				c-1.339,0.476-2.83-0.001-3.645-1.165l-20.962-17.781C271.659,246.219,284.953,227.846,285.896,216.185z"/>
			<path style="opacity:0.1;" d="M272.279,242.493c-3.827,4.464-8.05,8.311-12.042,10.77l6.016,4.888
				C272.752,252.357,274.594,246.157,272.279,242.493z"/>
			<path style="fill:#407BFF;" d="M264.801,179.768c8.158,1.395,42.045-3.21,44.57-3.325c0.267-1.874,1.13-6.501,3.158-5.678
				c2.028,0.823,3.074,4.316,2.66,5.964c4.806-0.857,11.133,8.969,3.942,17.035c-10.536,11.817-48.991,13.626-48.991,13.626
				S249.256,181.733,264.801,179.768z"/>
			<path style="opacity:0.1;" d="M267.341,195.499c-2.06-0.136-3.639,0.065-4.826,0.527c3.26,5.998,7.625,11.364,7.625,11.364
				s7.755-0.367,17.255-1.831C282.173,201.825,273.877,196.546,267.341,195.499z"/>
			<path style="fill:#407BFF;" d="M315.189,176.728c4.858-2.033,8.261-2.998,9.377-1.329c1.116,1.669-0.375,5.182-5.073,6.095
				C315.184,178.794,315.189,176.728,315.189,176.728z"/>
			<path style="fill:#407BFF;" d="M318.348,180.895c5.12-0.171,8.549,0.127,8.987,2.031c0.438,1.904-2.131,4.584-6.72,3.791
				C317.629,182.771,318.348,180.895,318.348,180.895z"/>
			<path style="fill:#407BFF;" d="M321.576,186.116c3.296,1.532,5.314,2.876,4.714,4.488c-0.599,1.613-3.446,2.848-5.965,0.745
				C320.262,187.332,321.576,186.116,321.576,186.116z"/>
			<path style="fill:#407BFF;" d="M202.147,205.337c-3.761,7.372-27.719,31.776-29.322,33.732c-1.661-0.907-5.886-2.983-6.44-0.865
				c-0.553,2.118,1.621,5.045,3.189,5.698c-3.561,3.339,0.53,14.287,11.295,13.348c15.772-1.376,40.221-31.113,40.221-31.113
				S213.019,194.055,202.147,205.337z"/>
			<path style="opacity:0.1;" d="M213.235,216.782c1.122-1.732,2.228-2.877,3.309-3.552c2.857,6.2,4.547,12.908,4.547,12.908
				s-4.932,5.995-11.787,12.734C209.434,232.452,210.165,222.646,213.235,216.782z"/>
			<path style="fill:#407BFF;" d="M169.574,243.902c-4.535,2.677-7.343,4.827-6.673,6.72c0.67,1.893,4.377,2.799,7.919-0.42
				C171.232,245.133,169.574,243.902,169.574,243.902z"/>
			<path style="fill:#407BFF;" d="M171.024,248.925c-3.199,4.002-5.011,6.927-3.748,8.417c1.263,1.49,4.948,1.034,7.057-3.118
				C172.958,249.472,171.024,248.925,171.024,248.925z"/>
			<path style="fill:#407BFF;" d="M173.278,254.635c-0.744,3.558-0.873,5.978,0.778,6.463c1.651,0.484,4.344-1.058,4.165-4.335
				C175.038,254.31,173.278,254.635,173.278,254.635z"/>
			<path style="opacity:0.1;" d="M260.726,253.206l-0.023-0.054l-13.305-0.953c-0.273,5.728,6.405,9.361,15.361,7.824
				L260.726,253.206z"/>
			<path style="fill:#407BFF;" d="M263.187,184.367l-27.433,11.753l-27.433,11.753c0,0,2.922,35.457,11.923,47.607
				c9.001,12.15,26.378,8.41,41.727,1.834c15.349-6.576,30.044-16.576,27.457-31.474
				C286.841,210.942,263.187,184.367,263.187,184.367z"/>
			<path style="opacity:0.2;fill:#FFFFFF;" d="M251.246,191.022l-14.935,6.398l-14.935,6.398c0.225-2.908-5.881,24.165,4.521,38.589
				c6.78,9.401,19.439,6.825,30.568,2.057c11.13-4.768,21.727-12.156,19.598-23.549
				C272.798,203.434,248.986,189.179,251.246,191.022z"/>
			<path style="opacity:0.2;fill:#FFFFFF;" d="M246.499,195.218l-9.957,4.266l-9.957,4.266c0.08-2.103-3.379,17.375,4.028,28.093
				c4.828,6.986,13.339,5.435,20.758,2.256c7.42-3.179,14.413-8.27,12.687-16.585C261.409,204.758,244.922,193.825,246.499,195.218z
				"/>
			<path style="opacity:0.2;fill:#FFFFFF;" d="M178.171,247.551c0.98,2.444,0.241,5.04-1.651,5.799
				c-1.892,0.759-4.22-0.607-5.201-3.05c-0.98-2.443-0.241-5.04,1.651-5.798C174.862,243.742,177.19,245.108,178.171,247.551z"/>
			<path style="opacity:0.2;fill:#FFFFFF;" d="M319.48,185.845c0.194,2.626-1.298,4.876-3.331,5.025
				c-2.033,0.15-3.838-1.857-4.031-4.483c-0.193-2.626,1.298-4.876,3.331-5.025C317.482,181.212,319.287,183.219,319.48,185.845z"/>
		</g>
		<g>
			<path style="fill:#263238;" d="M175.691,119.993c-39.872-28.226-101.131-10.91-105.936-0.253
				c-5.119,11.355,50.368,41.918,64.016,71.457C153.653,154.238,175.691,119.993,175.691,119.993z"/>
			<path style="opacity:0.5;fill:#407BFF;" d="M160.969,131.569c-31.56-22.038-76.059-12.095-78.938-4.604
				c-3.067,7.982,40.279,32.359,52.388,54.251C146.802,155.368,160.969,131.569,160.969,131.569z"/>
			<path style="fill:#263238;" d="M164.93,126.229c-8.939,0.598-16.508,3.598-23.182,10.644c10.852-3.154,17.641,3.647,17.641,3.647
				L164.93,126.229z"/>
			<path style="fill:#263238;" d="M223.403,99.552c19.156-60.459,87.399-60.704,101.022-51.548
				c10.338,6.947-33.653,34.922-21.866,75.245C262.849,109.673,223.403,99.552,223.403,99.552z"/>
			<path style="opacity:0.5;fill:#407BFF;" d="M241.426,98.235c16.035-34.993,53.319-48.98,70.759-45.868
				c16.475,2.939-32.763,41.375-22.707,75.208C265.701,111.57,241.426,98.235,241.426,98.235z"/>
			<path style="fill:#263238;" d="M240.339,92.836c6.415-3.216,12.86-4.218,20.328-2.063c-8.773,2.228-10.7,9.681-10.7,9.681
				L240.339,92.836z"/>
			<path style="fill:#263238;" d="M241.168,90.044c4.297-3.778,9.065-5.854,15.261-5.703c-6.316,3.493-6.295,9.631-6.295,9.631
				L241.168,90.044z"/>
			<path style="fill:#407BFF;" d="M314.332,126.339c10.079,23.525-26.284,52.007-76.902,73.693
				c-50.618,21.686-96.322,28.363-106.401,4.838c-10.079-23.525,14.243-80.113,64.861-101.798
				C246.508,81.386,304.253,102.814,314.332,126.339z"/>
			<path style="opacity:0.1;" d="M294.346,128.577c9.347,21.818-19.133,46.811-59.977,64.309
				c-40.844,17.498-78.585,20.876-87.932-0.942c-9.347-21.818,13.238-60.57,54.082-78.068
				C241.363,96.378,284.998,106.759,294.346,128.577z"/>
			<path style="fill:#263238;" d="M212.17,160.368c-0.883-2.061,1.807-4.422,5.665-6.075c3.858-1.653,7.423-1.972,8.306,0.089
				c0.883,2.061-0.471,7.54-4.329,9.193C217.953,165.228,213.053,162.429,212.17,160.368z"/>
			<path style="opacity:0.3;" d="M220.343,178.735c-0.597-1.394,2.235-3.424,6.093-5.077c3.858-1.653,7.281-2.303,7.878-0.909
				c0.597,1.394-1.332,5.532-5.19,7.185C225.267,181.587,220.94,180.129,220.343,178.735z"/>
			<path style="opacity:0.4;fill:#FFFFFF;" d="M148.907,161.773c5.518-15.785,18.1-27.493,30.942-30.423
				c21.647-4.938,27.979,22.171,17.539,40.865c-11.68,20.914-37.481,17.728-39.975,8.156
				C153.76,186.738,139.016,190.071,148.907,161.773z"/>
			<path style="fill:#FFFFFF;" d="M197.396,143.954c0,0-1.468,19.206-11.609,25.949c-10.142,6.743-25.117-1.53-25.117-1.53
				s1.468-19.206,11.609-25.949C182.421,135.68,197.396,143.954,197.396,143.954z"/>
			<path style="fill:#263238;" d="M160.67,168.373c-0.091-4.667,0.588-9.365,2.018-13.885c0.674-2.276,1.658-4.473,2.86-6.577
				c1.187-2.109,2.791-4.04,4.712-5.648c1.923-1.624,4.323-2.686,6.739-3.212c2.433-0.503,4.919-0.588,7.297-0.206
				c4.763,0.689,9.234,2.496,13.101,5.108c-4.366-1.592-8.849-2.728-13.301-2.982c-2.222-0.113-4.433,0.028-6.497,0.601
				c-2.067,0.531-4.025,1.411-5.618,2.817c-1.65,1.32-3.078,2.99-4.23,4.873l-0.461,0.687l-0.405,0.729
				c-0.264,0.49-0.555,0.965-0.8,1.468c-0.47,1.017-0.98,2.019-1.399,3.071C162.951,159.398,161.703,163.836,160.67,168.373z"/>
			<path style="fill:#FFFFFF;" d="M224.448,132.364c0,0,14.917,12.187,26.795,9.496c11.878-2.691,16.219-19.239,16.219-19.239
				s-14.917-12.187-26.795-9.496C228.79,115.815,224.448,132.364,224.448,132.364z"/>
			<path style="fill:#263238;" d="M267.462,122.621c-3.997-2.381-8.071-4.539-12.295-6.168c-1.051-0.423-2.128-0.745-3.188-1.106
				c-0.533-0.17-1.078-0.287-1.615-0.434l-0.807-0.21l-0.815-0.141c-2.159-0.464-4.352-0.583-6.447-0.299
				c-2.116,0.183-4.104,0.993-5.914,2.123c-1.838,1.1-3.465,2.604-4.917,4.29c-2.887,3.399-5.157,7.428-7.017,11.687
				c0.777-4.601,2.553-9.085,5.34-13.008c1.364-1.985,3.14-3.726,5.183-5.141c2.048-1.387,4.471-2.391,6.975-2.663
				c2.489-0.282,4.994-0.111,7.339,0.485c2.352,0.581,4.621,1.384,6.734,2.466C260.278,116.586,264.147,119.336,267.462,122.621z"/>
			<path style="fill:#263238;" d="M175.36,160.26c2.355,5.496,8.719,8.043,14.215,5.688c5.496-2.355,8.043-8.719,5.688-14.215
				c-2.355-5.496-8.719-8.043-14.215-5.688C175.552,148.4,173.005,154.764,175.36,160.26z"/>
			<path style="fill:#FFFFFF;" d="M176.606,156.646c0.992,2.315,3.672,3.387,5.987,2.396c2.315-0.992,3.387-3.672,2.396-5.987
				c-0.992-2.315-3.672-3.387-5.987-2.396C176.686,151.65,175.614,154.331,176.606,156.646z"/>
			<path style="fill:#263238;" d="M231.152,136.357c2.355,5.496,8.719,8.043,14.215,5.688c5.496-2.355,8.043-8.719,5.688-14.215
				c-2.355-5.496-8.719-8.043-14.215-5.688C231.344,124.497,228.797,130.861,231.152,136.357z"/>
			<path style="fill:#FFFFFF;" d="M232.397,132.743c0.992,2.315,3.672,3.387,5.987,2.396c2.315-0.992,3.387-3.672,2.396-5.987
				c-0.992-2.315-3.672-3.387-5.987-2.396C232.478,127.748,231.406,130.428,232.397,132.743z"/>
			<path style="fill:#FFFFFF;" d="M186.896,156.667c0.397,0.926,1.469,1.355,2.395,0.958c0.926-0.397,1.355-1.469,0.958-2.395
				c-0.397-0.926-1.469-1.355-2.395-0.958C186.928,154.669,186.499,155.741,186.896,156.667z"/>
			<path style="fill:#FFFFFF;" d="M242.688,132.765c0.397,0.926,1.469,1.355,2.395,0.958c0.926-0.397,1.355-1.469,0.958-2.395
				c-0.397-0.926-1.469-1.355-2.395-0.958C242.72,130.767,242.291,131.839,242.688,132.765z"/>
			<path style="fill:#263238;" d="M236.88,166.871c-0.546,0.352-1.101,0.707-1.675,1.038c-0.598,0.271-1.194,0.576-1.825,0.798
				c-1.264,0.436-2.612,0.708-3.997,0.709c-1.384-0.007-2.778-0.317-4.07-0.877c-1.301-0.593-2.426-1.374-3.433-2.553l1.628-0.697
				c0.162,1.543-0.054,2.895-0.518,4.247c-0.488,1.321-1.223,2.546-2.173,3.553c-0.957,1.001-2.083,1.791-3.271,2.404
				c-0.596,0.304-1.228,0.524-1.837,0.77c-0.635,0.188-1.275,0.345-1.907,0.496c0.568-0.333,1.135-0.646,1.695-0.955
				c0.526-0.374,1.085-0.678,1.579-1.073c1.012-0.751,1.906-1.616,2.658-2.565c0.706-0.982,1.294-2.03,1.616-3.169
				c0.181-0.562,0.289-1.143,0.364-1.725c0.054-0.566,0.061-1.209-0.004-1.683c-0.071-0.502,0.278-0.966,0.78-1.037
				c0.332-0.047,0.652,0.095,0.848,0.339c0.297,0.376,0.768,0.813,1.215,1.165c0.473,0.347,0.969,0.667,1.499,0.927
				c1.048,0.551,2.212,0.852,3.411,1.017c1.206,0.11,2.449,0.06,3.691-0.155c0.626-0.085,1.232-0.28,1.866-0.403
				C235.63,167.248,236.247,167.053,236.88,166.871z"/>
			<path style="fill:#263238;" d="M222.61,166.351c-0.354,0-0.691-0.207-0.839-0.553l-2.786-6.504
				c-0.198-0.463,0.016-0.999,0.479-1.197c0.463-0.203,0.999,0.015,1.198,0.479l2.786,6.504c0.198,0.463-0.016,0.999-0.479,1.197
				C222.851,166.327,222.73,166.351,222.61,166.351z"/>
			<path style="fill:#407BFF;" d="M131.719,180.234c-8.108,3.81-13.953,11.91-15.473,21.495c7.165-8.738,15.513-6.168,15.513-6.168
				L131.719,180.234z"/>
			<path style="fill:#407BFF;" d="M132.551,203.857c-2.881,6.18-2.349,13.764,1.436,20.107c-0.072-8.601,6.06-11.168,6.06-11.168
				L132.551,203.857z"/>
			<path style="fill:#407BFF;" d="M132.083,190.659c-8.176,6.099-12.85,16.468-12.359,27.507
				c6.001-11.382,15.899-10.418,15.899-10.418L132.083,190.659z"/>
			<path style="fill:#407BFF;" d="M296.021,109.843c8.352-3.242,18.248-1.886,26.235,3.626c-11.269-0.84-15.167,6.976-15.167,6.976
				L296.021,109.843z"/>
			<path style="fill:#407BFF;" d="M309.864,126.345c6.73-1.098,14.069-0.243,18.568,4.13c-9.284,0-15.105,5.508-15.105,5.508
				L309.864,126.345z"/>
			<path style="fill:#407BFF;" d="M307.612,125.364c6.107,3.034,11.568,8.01,12.672,14.187c-7.541-5.416-15.482-4.337-15.482-4.337
				L307.612,125.364z"/>
			<path style="fill:#407BFF;" d="M303.317,117.298c10.056-1.711,20.787,2.058,28.44,10.028c-12.38-3.508-18.511,4.324-18.511,4.324
				L303.317,117.298z"/>
			<path style="fill:#407BFF;" d="M189.955,107.531c-0.378-5.66,2.357-10.535,9.116-15.562c-1.419,8.082,4.427,10.102,4.427,10.102
				L189.955,107.531z"/>
			<path style="fill:#407BFF;" d="M197.382,104.38c1.343-6.576,8.078-13.042,17.886-17.134c-6.973,7.543-1.36,12.219-1.36,12.219
				L197.382,104.38z"/>
			<path style="fill:#263238;" d="M141.594,222.547c-0.087,0-0.175-0.025-0.253-0.077c-0.209-0.14-0.265-0.423-0.125-0.633
				c26.517-39.617,74.753-55.244,75.237-55.397c0.242-0.074,0.497,0.058,0.573,0.297c0.076,0.24-0.057,0.496-0.297,0.572
				c-0.481,0.152-48.419,15.689-74.755,55.036C141.886,222.476,141.742,222.547,141.594,222.547z"/>
			<path style="fill:#263238;" d="M148.885,247.507c-0.049,0-0.099-0.008-0.148-0.024c-0.238-0.082-0.365-0.341-0.284-0.579
				c18.297-53.457,66.192-76.608,66.674-76.836c0.228-0.106,0.5-0.01,0.607,0.217c0.108,0.229,0.011,0.5-0.217,0.607
				c-0.478,0.227-48.032,23.226-66.201,76.307C149.252,247.388,149.075,247.507,148.885,247.507z"/>
			<path style="fill:#263238;" d="M227.801,162.527c-0.158,0-0.311-0.082-0.395-0.227c-0.126-0.219-0.051-0.497,0.166-0.623
				c0.44-0.254,44.507-25.325,91.644-18.191c0.249,0.038,0.42,0.271,0.383,0.52c-0.038,0.249-0.269,0.408-0.519,0.383
				c-46.812-7.095-90.614,17.825-91.051,18.078C227.957,162.508,227.879,162.527,227.801,162.527z"/>
			<path style="fill:#263238;" d="M322.375,165.895c-0.046,0-0.094-0.007-0.14-0.022c-55.8-18.009-90.41-1.982-90.753-1.82
				c-0.227,0.111-0.499,0.013-0.608-0.215c-0.109-0.227-0.013-0.499,0.215-0.607c0.346-0.166,35.255-16.357,91.427,1.775
				c0.24,0.077,0.371,0.334,0.294,0.573C322.747,165.771,322.568,165.895,322.375,165.895z"/>
		</g>
	</g>
</g>
<g id="Ball_Of_Yarn">
	<g>
		
			<ellipse transform="matrix(0.6795 -0.7337 0.7337 0.6795 -224.7387 274.9127)" style="fill:#407BFF;" cx="202.293" cy="394.69" rx="22.967" ry="22.967"/>
		<path style="fill:#407BFF;" d="M266.751,418.624c-11.385,0-15.398-4.309-19.278-8.478c-1.349-1.448-2.623-2.817-4.21-4.027
			c-5.819-4.439-14.995-6.468-19.638-4.339c-0.484,0.222-1.056,0.01-1.278-0.476c-0.222-0.484-0.009-1.057,0.475-1.278
			c5.294-2.421,15.19-0.336,21.61,4.56c1.717,1.31,3.107,2.803,4.452,4.247c3.765,4.044,7.321,7.864,17.867,7.864
			c5.484,0,10.247-2.674,12.741-7.152c2.149-3.86,2.205-8.323,0.145-11.648c-2.386-3.85-7.311-5.801-13.866-5.495
			c-0.52,0.039-0.983-0.386-1.008-0.918s0.386-0.983,0.918-1.008c7.284-0.334,12.824,1.934,15.595,6.405
			c2.428,3.919,2.39,9.131-0.099,13.602C278.338,415.58,272.946,418.624,266.751,418.624z"/>
		<g>
			<g>
				<path style="fill:#407BFF;" d="M211.997,412.204c-13.76,0-25.729-6.1-32.908-12.481c-0.398-0.354-0.434-0.963-0.08-1.361
					c0.354-0.397,0.964-0.434,1.361-0.08c8.024,7.134,22.277,13.898,38.213,11.503c0.525-0.085,1.018,0.283,1.097,0.81
					c0.079,0.526-0.283,1.017-0.81,1.097C216.541,412.042,214.244,412.204,211.997,412.204z"/>
				<path style="fill:#407BFF;" d="M209.48,415.063c-11.793,0-21.861-4.644-30.647-14.099c-0.363-0.39-0.34-1,0.05-1.362
					c0.39-0.364,1-0.34,1.363,0.05c9.731,10.474,21.102,14.772,34.758,13.146c0.526-0.065,1.008,0.314,1.071,0.843
					c0.063,0.529-0.314,1.009-0.843,1.071C213.271,414.945,211.353,415.063,209.48,415.063z"/>
				<path style="fill:#407BFF;" d="M192.057,416.217c-0.5,0-0.923-0.386-0.96-0.893c-0.836-11.279,3.05-29.24,13.616-43.938
					c0.311-0.434,0.913-0.53,1.346-0.221c0.432,0.312,0.531,0.914,0.22,1.346c-10.283,14.306-14.069,31.739-13.259,42.671
					c0.039,0.531-0.359,0.993-0.89,1.033C192.105,416.216,192.081,416.217,192.057,416.217z"/>
				<path style="fill:#407BFF;" d="M182.467,407.272c-0.176,0-0.354-0.048-0.514-0.15c-0.45-0.284-0.584-0.88-0.299-1.33
					c3.358-5.31,15.836-23.12,35.396-29.376c0.507-0.162,1.05,0.117,1.212,0.624c0.162,0.508-0.118,1.05-0.625,1.212
					c-18.941,6.059-31.084,23.4-34.354,28.571C183.099,407.114,182.786,407.272,182.467,407.272z"/>
				<path style="fill:#407BFF;" d="M182.467,407.273c-0.12,0-0.242-0.023-0.36-0.07c-0.494-0.199-0.733-0.761-0.534-1.255
					c2.8-6.947,11.624-23.909,33.031-31.356c0.503-0.178,1.053,0.09,1.228,0.594c0.175,0.503-0.091,1.052-0.594,1.227
					c-20.661,7.188-29.175,23.554-31.877,30.257C183.21,407.045,182.849,407.273,182.467,407.273z"/>
				<path style="fill:#407BFF;" d="M189.208,414.535c-0.483,0-0.899-0.361-0.957-0.853c-2.422-20.839,4.42-32.758,12.175-42.535
					c0.331-0.416,0.936-0.487,1.355-0.155c0.417,0.33,0.487,0.937,0.156,1.355c-7.497,9.45-14.111,20.973-11.77,41.113
					c0.061,0.529-0.318,1.008-0.846,1.069C189.283,414.533,189.245,414.535,189.208,414.535z"/>
				<path style="fill:#407BFF;" d="M186.529,412.364c-0.423,0-0.811-0.28-0.929-0.708c-3.053-11.045-0.766-28.328,11.47-40.175
					c0.382-0.371,0.993-0.36,1.363,0.021c0.37,0.383,0.361,0.993-0.022,1.363c-11.153,10.798-13.952,27.429-10.953,38.276
					c0.142,0.513-0.159,1.044-0.672,1.186C186.7,412.353,186.614,412.364,186.529,412.364z"/>
				<path style="fill:#407BFF;" d="M225.033,398.856c-0.195,0-0.392-0.059-0.562-0.181c-14.305-10.284-31.739-14.075-42.67-13.259
					c-0.534,0.021-0.993-0.359-1.033-0.891c-0.039-0.531,0.359-0.993,0.89-1.033c11.281-0.829,29.24,3.05,43.938,13.616
					c0.432,0.311,0.531,0.914,0.22,1.346C225.628,398.718,225.333,398.856,225.033,398.856z"/>
				<path style="fill:#407BFF;" d="M225.196,396.194c-0.131,0-0.263-0.027-0.391-0.084c-12.82-5.689-32.217-6.444-45.118-1.757
					c-0.501,0.177-1.054-0.077-1.235-0.577c-0.182-0.5,0.077-1.054,0.577-1.235c13.317-4.839,33.334-4.063,46.559,1.808
					c0.487,0.216,0.706,0.785,0.49,1.271C225.918,395.98,225.565,396.194,225.196,396.194z"/>
				<path style="fill:#407BFF;" d="M225.162,393.493c-0.261,0-0.52-0.104-0.71-0.312c-9.508-10.344-21.833-14.024-39.965-11.909
					c-0.529,0.059-1.007-0.317-1.069-0.847c-0.061-0.529,0.318-1.008,0.846-1.069c18.554-2.153,31.775,1.822,41.608,12.521
					c0.36,0.392,0.334,1.002-0.058,1.362C225.629,393.409,225.395,393.493,225.162,393.493z"/>
				<path style="fill:#407BFF;" d="M224.443,389.565c-0.246,0-0.493-0.094-0.681-0.281c-11.89-11.859-28.66-13.575-36.249-10.998
					c-0.506,0.172-1.052-0.101-1.223-0.604c-0.171-0.504,0.099-1.052,0.603-1.223c8.047-2.728,25.763-0.975,38.23,11.459
					c0.377,0.376,0.378,0.986,0.002,1.363C224.937,389.472,224.69,389.565,224.443,389.565z"/>
				<path style="fill:#407BFF;" d="M219.982,410.311c-0.091,0-0.183-0.014-0.275-0.04c-22.987-6.816-39.904-22.275-40.072-22.431
					c-0.391-0.361-0.416-0.971-0.054-1.362c0.361-0.39,0.971-0.417,1.362-0.054c0.165,0.152,16.77,15.314,39.313,21.997
					c0.51,0.151,0.801,0.689,0.65,1.199C220.782,410.04,220.398,410.311,219.982,410.311z"/>
				<path style="fill:#407BFF;" d="M220.458,409.717c-0.128,0-0.257-0.026-0.382-0.08c-21.075-9.108-39.651-22.112-39.836-22.243
					c-0.436-0.306-0.54-0.907-0.234-1.343c0.307-0.436,0.908-0.541,1.343-0.233c0.184,0.129,18.605,13.022,39.492,22.05
					c0.489,0.211,0.714,0.778,0.502,1.268C221.186,409.499,220.831,409.717,220.458,409.717z"/>
				<path style="fill:#407BFF;" d="M221.314,408.533c-0.154,0-0.311-0.036-0.456-0.114c-19.666-10.574-40.287-20.848-40.493-20.95
					c-0.477-0.237-0.671-0.816-0.433-1.293c0.237-0.478,0.817-0.669,1.293-0.434c0.206,0.103,20.853,10.39,40.546,20.978
					c0.469,0.253,0.645,0.837,0.393,1.307C221.99,408.35,221.657,408.533,221.314,408.533z"/>
				<path style="fill:#407BFF;" d="M221.99,407.472c-0.208,0-0.418-0.066-0.594-0.205c-17.858-14.012-40.311-20.497-40.535-20.561
					c-0.512-0.146-0.81-0.679-0.664-1.191c0.145-0.512,0.678-0.807,1.191-0.664c0.228,0.065,23.034,6.647,41.199,20.898
					c0.419,0.329,0.492,0.935,0.163,1.354C222.559,407.346,222.276,407.472,221.99,407.472z"/>
				<path style="fill:#407BFF;" d="M223.843,403.595c-0.215,0-0.432-0.071-0.611-0.219c-16.358-13.436-41.965-16.609-42.221-16.641
					c-0.529-0.063-0.906-0.542-0.844-1.07c0.063-0.528,0.544-0.91,1.071-0.844c0.262,0.03,26.417,3.266,43.218,17.064
					c0.412,0.338,0.471,0.945,0.133,1.357C224.398,403.475,224.121,403.595,223.843,403.595z"/>
				<path style="fill:#407BFF;" d="M193.693,416.95c-0.299,0-0.594-0.139-0.782-0.399c-0.312-0.431-0.215-1.034,0.216-1.346
					c18.233-13.182,28.64-31.482,28.743-31.665c0.261-0.465,0.848-0.63,1.313-0.368c0.464,0.261,0.629,0.849,0.368,1.314
					c-0.105,0.186-10.722,18.855-29.295,32.282C194.086,416.891,193.889,416.95,193.693,416.95z"/>
			</g>
			<g style="opacity:0.3;">
				<path d="M211.997,412.204c-13.76,0-25.729-6.1-32.908-12.481c-0.398-0.354-0.434-0.963-0.08-1.361
					c0.354-0.397,0.964-0.434,1.361-0.08c8.024,7.134,22.277,13.898,38.213,11.503c0.525-0.085,1.018,0.283,1.097,0.81
					c0.079,0.526-0.283,1.017-0.81,1.097C216.541,412.042,214.244,412.204,211.997,412.204z"/>
				<path d="M209.48,415.063c-11.793,0-21.861-4.644-30.647-14.099c-0.363-0.39-0.34-1,0.05-1.362c0.39-0.364,1-0.34,1.363,0.05
					c9.731,10.474,21.102,14.772,34.758,13.146c0.526-0.065,1.008,0.314,1.071,0.843c0.063,0.529-0.314,1.009-0.843,1.071
					C213.271,414.945,211.353,415.063,209.48,415.063z"/>
				<path d="M192.057,416.217c-0.5,0-0.923-0.386-0.96-0.893c-0.836-11.279,3.05-29.24,13.616-43.938
					c0.311-0.434,0.913-0.53,1.346-0.221c0.432,0.312,0.531,0.914,0.22,1.346c-10.283,14.306-14.069,31.739-13.259,42.671
					c0.039,0.531-0.359,0.993-0.89,1.033C192.105,416.216,192.081,416.217,192.057,416.217z"/>
				<path d="M182.467,407.272c-0.176,0-0.354-0.048-0.514-0.15c-0.45-0.284-0.584-0.88-0.299-1.33
					c3.358-5.31,15.836-23.12,35.396-29.376c0.507-0.162,1.05,0.117,1.212,0.624c0.162,0.508-0.118,1.05-0.625,1.212
					c-18.941,6.059-31.084,23.4-34.354,28.571C183.099,407.114,182.786,407.272,182.467,407.272z"/>
				<path d="M182.467,407.273c-0.12,0-0.242-0.023-0.36-0.07c-0.494-0.199-0.733-0.761-0.534-1.255
					c2.8-6.947,11.624-23.909,33.031-31.356c0.503-0.178,1.053,0.09,1.228,0.594c0.175,0.503-0.091,1.052-0.594,1.227
					c-20.661,7.188-29.175,23.554-31.877,30.257C183.21,407.045,182.849,407.273,182.467,407.273z"/>
				<path d="M189.208,414.535c-0.483,0-0.899-0.361-0.957-0.853c-2.422-20.839,4.42-32.758,12.175-42.535
					c0.331-0.416,0.936-0.487,1.355-0.155c0.417,0.33,0.487,0.937,0.156,1.355c-7.497,9.45-14.111,20.973-11.77,41.113
					c0.061,0.529-0.318,1.008-0.846,1.069C189.283,414.533,189.245,414.535,189.208,414.535z"/>
				<path d="M186.529,412.364c-0.423,0-0.811-0.28-0.929-0.708c-3.053-11.045-0.766-28.328,11.47-40.175
					c0.382-0.371,0.993-0.36,1.363,0.021c0.37,0.383,0.361,0.993-0.022,1.363c-11.153,10.798-13.952,27.429-10.953,38.276
					c0.142,0.513-0.159,1.044-0.672,1.186C186.7,412.353,186.614,412.364,186.529,412.364z"/>
				<path d="M225.033,398.856c-0.195,0-0.392-0.059-0.562-0.181c-14.305-10.284-31.739-14.075-42.67-13.259
					c-0.534,0.021-0.993-0.359-1.033-0.891c-0.039-0.531,0.359-0.993,0.89-1.033c11.281-0.829,29.24,3.05,43.938,13.616
					c0.432,0.311,0.531,0.914,0.22,1.346C225.628,398.718,225.333,398.856,225.033,398.856z"/>
				<path d="M225.196,396.194c-0.131,0-0.263-0.027-0.391-0.084c-12.82-5.689-32.217-6.444-45.118-1.757
					c-0.501,0.177-1.054-0.077-1.235-0.577c-0.182-0.5,0.077-1.054,0.577-1.235c13.317-4.839,33.334-4.063,46.559,1.808
					c0.487,0.216,0.706,0.785,0.49,1.271C225.918,395.98,225.565,396.194,225.196,396.194z"/>
				<path d="M225.162,393.493c-0.261,0-0.52-0.104-0.71-0.312c-9.508-10.344-21.833-14.024-39.965-11.909
					c-0.529,0.059-1.007-0.317-1.069-0.847c-0.061-0.529,0.318-1.008,0.846-1.069c18.554-2.153,31.775,1.822,41.608,12.521
					c0.36,0.392,0.334,1.002-0.058,1.362C225.629,393.409,225.395,393.493,225.162,393.493z"/>
				<path d="M224.443,389.565c-0.246,0-0.493-0.094-0.681-0.281c-11.89-11.859-28.66-13.575-36.249-10.998
					c-0.506,0.172-1.052-0.101-1.223-0.604c-0.171-0.504,0.099-1.052,0.603-1.223c8.047-2.728,25.763-0.975,38.23,11.459
					c0.377,0.376,0.378,0.986,0.002,1.363C224.937,389.472,224.69,389.565,224.443,389.565z"/>
				<path d="M219.982,410.311c-0.091,0-0.183-0.014-0.275-0.04c-22.987-6.816-39.904-22.275-40.072-22.431
					c-0.391-0.361-0.416-0.971-0.054-1.362c0.361-0.39,0.971-0.417,1.362-0.054c0.165,0.152,16.77,15.314,39.313,21.997
					c0.51,0.151,0.801,0.689,0.65,1.199C220.782,410.04,220.398,410.311,219.982,410.311z"/>
				<path d="M220.458,409.717c-0.128,0-0.257-0.026-0.382-0.08c-21.075-9.108-39.651-22.112-39.836-22.243
					c-0.436-0.306-0.54-0.907-0.234-1.343c0.307-0.436,0.908-0.541,1.343-0.233c0.184,0.129,18.605,13.022,39.492,22.05
					c0.489,0.211,0.714,0.778,0.502,1.268C221.186,409.499,220.831,409.717,220.458,409.717z"/>
				<path d="M221.314,408.533c-0.154,0-0.311-0.036-0.456-0.114c-19.666-10.574-40.287-20.848-40.493-20.95
					c-0.477-0.237-0.671-0.816-0.433-1.293c0.237-0.478,0.817-0.669,1.293-0.434c0.206,0.103,20.853,10.39,40.546,20.978
					c0.469,0.253,0.645,0.837,0.393,1.307C221.99,408.35,221.657,408.533,221.314,408.533z"/>
				<path d="M221.99,407.472c-0.208,0-0.418-0.066-0.594-0.205c-17.858-14.012-40.311-20.497-40.535-20.561
					c-0.512-0.146-0.81-0.679-0.664-1.191c0.145-0.512,0.678-0.807,1.191-0.664c0.228,0.065,23.034,6.647,41.199,20.898
					c0.419,0.329,0.492,0.935,0.163,1.354C222.559,407.346,222.276,407.472,221.99,407.472z"/>
				<path d="M223.843,403.595c-0.215,0-0.432-0.071-0.611-0.219c-16.358-13.436-41.965-16.609-42.221-16.641
					c-0.529-0.063-0.906-0.542-0.844-1.07c0.063-0.528,0.544-0.91,1.071-0.844c0.262,0.03,26.417,3.266,43.218,17.064
					c0.412,0.338,0.471,0.945,0.133,1.357C224.398,403.475,224.121,403.595,223.843,403.595z"/>
				<path d="M193.693,416.95c-0.299,0-0.594-0.139-0.782-0.399c-0.312-0.431-0.215-1.034,0.216-1.346
					c18.233-13.182,28.64-31.482,28.743-31.665c0.261-0.465,0.848-0.63,1.313-0.368c0.464,0.261,0.629,0.849,0.368,1.314
					c-0.105,0.186-10.722,18.855-29.295,32.282C194.086,416.891,193.889,416.95,193.693,416.95z"/>
			</g>
		</g>
	</g>
</g>
</svg>
